<?xml version="1.0" encoding="iso-8859-1"?>
<!-- Generator: Adobe Illustrator 19.0.0, SVG Export Plug-In . SVG Version: 6.00 Build 0)  -->
<svg version="1.1" id="Layer_1" xmlns="http://www.w3.org/2000/svg" xmlns:xlink="http://www.w3.org/1999/xlink" x="0px" y="0px"
	 viewBox="0 0 512 512" style="enable-background:new 0 0 512 512;" xml:space="preserve">
<path d="M483.87,10.531L329.053,94.298H182.947L28.13,10.531C15.436,3.663,0,12.885,0,27.294v354.061
	c0,67.51,54.924,122.432,122.432,122.432h267.136c67.51,0,122.432-54.924,122.432-122.432V27.294
	C512,12.862,496.544,3.673,483.87,10.531z M256,332.555l-30.074-31.518h60.147L256,332.555z M473.881,381.354
	c0,46.49-37.823,84.313-84.313,84.313H275.06v-97.868l50.226-52.64c18.719-19.621,4.792-52.243-22.362-52.243h-93.849
	c-27.123,0-41.102,32.6-22.361,52.243l50.226,52.639v97.868H122.432c-46.489,0.003-84.313-37.821-84.313-84.311V59.277
	l120.942,65.438v50.45c0,10.526,8.534,19.06,19.06,19.06c10.526,0,19.06-8.534,19.06-19.06v-42.747H314.82v42.747
	c0,10.526,8.534,19.06,19.06,19.06c10.526,0,19.06-8.534,19.06-19.06v-50.449l120.942-65.438V381.354z M163.206,230.725
	c0.013-13.925-11.266-25.224-25.191-25.236s-25.224,11.266-25.236,25.191s11.266,25.224,25.191,25.236
	C151.895,255.928,163.193,244.65,163.206,230.725z M399.222,230.893c0.013-13.925-11.266-25.224-25.191-25.236
	c-13.925-0.013-25.224,11.266-25.236,25.191c-0.013,13.925,11.266,25.224,25.191,25.236
	C387.911,256.096,399.21,244.818,399.222,230.893z"/>
<g>
</g>
<g>
</g>
<g>
</g>
<g>
</g>
<g>
</g>
<g>
</g>
<g>
</g>
<g>
</g>
<g>
</g>
<g>
</g>
<g>
</g>
<g>
</g>
<g>
</g>
<g>
</g>
<g>
</g>
</svg>
